name rise43.5482peak65.4966fall89.1036.mot
datacolumns 19
datarows 23
range 23.69657100000000 23.73325100000000
endheader
time	ground_force1_vx	ground_force1_vy	ground_force1_vz	ground_force1_px	ground_force1_py	ground_force1_pz	ground_force2_vx	ground_force2_vy	ground_force2_vz	ground_force2_px	ground_force2_py	ground_force2_pz	ground_torque1_x	ground_torque1_y	ground_torque1_z	ground_torque2_x	ground_torque2_y	ground_torque2_z	
23.69657100000000	-6.88801800000000	46.47115800000000	-14.16290900000000	0.26109800000000	0.00000000000000	0.09434300000000	-50.45889100000000	804.30432299999995	-61.35338300000000	0.07908600000000	0.00000000000000	-0.10708000000000	0.00000000000000	-7.67912700000000	0.00000000000000	0.00000000000000	-19.14546800000000	0.00000000000000	
23.69826200000000	-7.32102400000000	53.36921300000000	-15.56667000000000	0.26584200000000	0.00000000000000	0.09567700000000	-51.28106800000000	801.83322299999998	-61.04368700000000	0.07810000000000	0.00000000000000	-0.10695300000000	0.00000000000000	-8.54486600000000	0.00000000000000	0.00000000000000	-19.14424400000000	0.00000000000000	
23.69990400000000	-7.60280000000000	60.26128800000000	-16.78905400000000	0.27018900000000	0.00000000000000	0.09689600000000	-52.10836100000000	799.20762600000000	-60.71069000000000	0.07712000000000	0.00000000000000	-0.10682400000000	0.00000000000000	-9.32849400000000	0.00000000000000	0.00000000000000	-19.14351600000000	0.00000000000000	
23.70157400000000	-7.72272600000000	67.08005100000000	-17.80814800000000	0.27419400000000	0.00000000000000	0.09801900000000	-52.93964400000000	796.42417100000000	-60.35424100000000	0.07614800000000	0.00000000000000	-0.10669200000000	0.00000000000000	-10.01593400000000	0.00000000000000	0.00000000000000	-19.14316100000000	0.00000000000000	
23.70324100000000	-7.67737100000000	73.78204100000001	-18.61355400000000	0.27790200000000	0.00000000000000	0.09905800000000	-53.77371500000000	793.47954200000004	-59.97421800000000	0.07518500000000	0.00000000000000	-0.10655700000000	0.00000000000000	-10.59933900000000	0.00000000000000	0.00000000000000	-19.14303900000000	0.00000000000000	
23.70491700000000	-7.46980300000000	80.34744999999999	-19.20555300000000	0.28135100000000	0.00000000000000	0.10002400000000	-54.60929700000000	790.37047399999994	-59.57052500000000	0.07423000000000	0.00000000000000	-0.10641900000000	0.00000000000000	-11.07678900000000	0.00000000000000	0.00000000000000	-19.14299800000000	0.00000000000000	
23.70656700000000	-7.10848800000000	86.77799000000000	-19.59353500000000	0.28457000000000	0.00000000000000	0.10092700000000	-55.44504500000000	787.09376299999997	-59.14309900000000	0.07328400000000	0.00000000000000	-0.10627800000000	0.00000000000000	-11.45156800000000	0.00000000000000	0.00000000000000	-19.14286500000000	0.00000000000000	
23.70823400000000	-6.60593700000000	93.09335299999999	-19.79395500000000	0.28758400000000	0.00000000000000	0.10177500000000	-56.27953900000000	783.64627900000005	-58.69190800000000	0.07234800000000	0.00000000000000	-0.10613500000000	0.00000000000000	-11.73111700000000	0.00000000000000	0.00000000000000	-19.14245700000000	0.00000000000000	
23.70990800000000	-5.97726700000000	99.32682900000000	-19.82806600000000	0.29041400000000	0.00000000000000	0.10257300000000	-57.11129500000000	780.02497600000004	-58.21695400000000	0.07142200000000	0.00000000000000	-0.10598800000000	0.00000000000000	-11.92583700000000	0.00000000000000	0.00000000000000	-19.14157200000000	0.00000000000000	
23.71157600000000	-5.23878800000000	105.52055400000000	-19.71965100000000	0.29307700000000	0.00000000000000	0.10332800000000	-57.93876100000000	776.22690399999999	-57.71826900000000	0.07050700000000	0.00000000000000	-0.10583900000000	0.00000000000000	-12.04784900000000	0.00000000000000	0.00000000000000	-19.13999500000000	0.00000000000000	
23.71324200000000	-4.40675400000000	111.72087300000000	-19.49294800000000	0.29558800000000	0.00000000000000	0.10404400000000	-58.76032500000000	772.24922200000003	-57.19592500000000	0.06960200000000	0.00000000000000	-0.10568600000000	0.00000000000000	-12.10982400000000	0.00000000000000	0.00000000000000	-19.13749900000000	0.00000000000000	
23.71490900000000	-3.49632700000000	117.97414600000000	-19.17088500000000	0.29796000000000	0.00000000000000	0.10472500000000	-59.57431300000000	768.08920799999999	-56.65002600000000	0.06870900000000	0.00000000000000	-0.10553100000000	0.00000000000000	-12.12397600000000	0.00000000000000	0.00000000000000	-19.13384100000000	0.00000000000000	
23.71657200000000	-2.52080700000000	124.32325899999999	-18.77373200000000	0.30020300000000	0.00000000000000	0.10537400000000	-60.37899900000000	763.74427500000002	-56.08071400000000	0.06782700000000	0.00000000000000	-0.10537200000000	0.00000000000000	-12.10125200000000	0.00000000000000	0.00000000000000	-19.12876500000000	0.00000000000000	
23.71823900000000	-1.49114400000000	130.80498800000001	-18.31818200000000	0.30232500000000	0.00000000000000	0.10599400000000	-61.17260100000000	759.21198200000003	-55.48817100000000	0.06695700000000	0.00000000000000	-0.10521100000000	0.00000000000000	-12.05076700000000	0.00000000000000	0.00000000000000	-19.12200600000000	0.00000000000000	
23.71990900000000	-0.41571600000000	137.44826200000000	-17.81686400000000	0.30433600000000	0.00000000000000	0.10658800000000	-61.95329300000000	754.49005000000000	-54.87261700000000	0.06609900000000	0.00000000000000	-0.10504700000000	0.00000000000000	-11.97947800000000	0.00000000000000	0.00000000000000	-19.11328400000000	0.00000000000000	
23.72157400000000	0.69965900000000	144.27329200000000	-17.27825300000000	0.30624100000000	0.00000000000000	0.10715800000000	-62.71920200000000	749.57637599999998	-54.23431100000000	0.06525300000000	0.00000000000000	-0.10488000000000	0.00000000000000	-11.89207300000000	0.00000000000000	0.00000000000000	-19.10231100000000	0.00000000000000	
23.72323700000000	1.85151600000000	151.29148900000001	-16.70690500000000	0.30804600000000	0.00000000000000	0.10770500000000	-63.46841900000000	744.46904600000005	-53.57355200000000	0.06442000000000	0.00000000000000	-0.10471000000000	0.00000000000000	-11.79106200000000	0.00000000000000	0.00000000000000	-19.08878900000000	0.00000000000000	
23.72490300000000	3.03839700000000	158.50601499999999	-16.10393800000000	0.30975500000000	0.00000000000000	0.10823300000000	-64.19900000000000	739.16635299999996	-52.89068400000000	0.06359800000000	0.00000000000000	-0.10453600000000	0.00000000000000	-11.67701100000000	0.00000000000000	0.00000000000000	-19.07241000000000	0.00000000000000	
23.72657600000000	4.26041200000000	165.91281799999999	-15.46769000000000	0.31137400000000	0.00000000000000	0.10874100000000	-64.90897000000000	733.66681100000005	-52.18608900000000	0.06278900000000	0.00000000000000	-0.10436000000000	0.00000000000000	-11.54888000000000	0.00000000000000	0.00000000000000	-19.05286100000000	0.00000000000000	
23.72823500000000	5.51876000000000	173.50199200000000	-14.79446200000000	0.31290600000000	0.00000000000000	0.10923100000000	-65.59633200000000	727.96916999999996	-51.46019300000000	0.06199300000000	0.00000000000000	-0.10418100000000	0.00000000000000	-11.40443500000000	0.00000000000000	0.00000000000000	-19.02982100000000	0.00000000000000	
23.72990600000000	6.81525600000000	181.25927899999999	-14.07927500000000	0.31435300000000	0.00000000000000	0.10970500000000	-66.25906999999999	722.07243000000005	-50.71346400000000	0.06120800000000	0.00000000000000	-0.10400000000000	0.00000000000000	-11.24065900000000	0.00000000000000	0.00000000000000	-19.00296400000000	0.00000000000000	
23.73157600000000	8.15189200000000	189.16759900000000	-13.31659400000000	0.31571900000000	0.00000000000000	0.11016300000000	-66.89515400000001	715.97586000000001	-49.94641300000000	0.06043600000000	0.00000000000000	-0.10381500000000	0.00000000000000	-11.05416500000000	0.00000000000000	0.00000000000000	-18.97196000000000	0.00000000000000	
23.73325100000000	9.53046200000000	197.20847699999999	-12.50095300000000	0.31700500000000	0.00000000000000	0.11060700000000	-67.50254800000000	709.67900699999996	-49.15959200000000	0.05967500000000	0.00000000000000	-0.10362800000000	0.00000000000000	-10.84155800000000	0.00000000000000	0.00000000000000	-18.93647500000000	0.00000000000000	
